<svg xmlns="http://www.w3.org/2000/svg" viewBox="0 0 500 361.32"><defs><style>.cls-1{fill:#ebebeb;}.cls-2{fill:#f5f5f5;}.cls-11,.cls-12,.cls-3{fill:#fff;}.cls-4{fill:#fafafa;}.cls-5{fill:#e0e0e0;}.cls-6{fill:#f0f0f0;}.cls-15,.cls-7{fill:#05738b;}.cls-8{fill:#009ed9;}.cls-9{fill:#263238;}.cls-10,.cls-17,.cls-19{fill:#407bff;}.cls-11{opacity:0.3;}.cls-12{opacity:0.1;}.cls-13{fill:#ffb473;}.cls-14{opacity:0.2;}.cls-15,.cls-18{opacity:0.7;}.cls-16{fill:#ec883e;}.cls-17{opacity:0.4;}.cls-19{opacity:0.15;}</style></defs><g id="Layer_2" data-name="Layer 2"><g id="Chat"><rect class="cls-1" y="316.16" width="500" height="0.25"/><rect class="cls-1" x="416.78" y="332.25" width="33.12" height="0.25"/><rect class="cls-1" x="322.53" y="334.97" width="8.69" height="0.25"/><rect class="cls-1" x="368.11" y="322.97" width="47.67" height="0.25"/><rect class="cls-1" x="52.46" y="324.65" width="23.68" height="0.25"/><rect class="cls-1" x="85.04" y="324.65" width="25.85" height="0.25"/><rect class="cls-1" x="131.47" y="328.87" width="64.64" height="0.25"/><rect class="cls-1" x="283.44" y="14.76" width="157.97" height="301.4"/><rect class="cls-2" x="295.19" y="24.59" width="134.47" height="291.57"/><rect class="cls-3" x="343.53" y="48.77" width="37.81" height="10.45"/><path class="cls-3" d="M398.37,152.57h20.51a3.21,3.21,0,0,1,3.2,3.21h0a3.2,3.2,0,0,1-3.2,3.2H398.37a3.2,3.2,0,0,1-3.2-3.2h0A3.21,3.21,0,0,1,398.37,152.57Z"/><rect class="cls-1" x="70.38" y="46.83" width="105.06" height="84.67"/><rect class="cls-4" x="86.21" y="42.27" width="73.39" height="93.78" transform="translate(212.07 -33.74) rotate(90)"/><rect class="cls-5" x="121.15" y="52.42" width="3.51" height="71.91" transform="translate(211.28 -34.53) rotate(90)"/><rect class="cls-5" x="121.15" y="60.41" width="3.51" height="71.91" transform="translate(219.27 -26.54) rotate(90)"/><rect class="cls-5" x="121.15" y="68.39" width="3.51" height="71.91" transform="translate(227.25 -18.56) rotate(90)"/><rect class="cls-5" x="121.15" y="94.41" width="3.51" height="35.85" transform="translate(235.24 -10.57) rotate(90)"/><path class="cls-1" d="M87,52.47a10.93,10.93,0,0,1-16.57,9.36v-15h15A10.9,10.9,0,0,1,87,52.47Z"/><path class="cls-1" d="M175.44,46.83v15a10.93,10.93,0,0,1-16.58-9.36,10.82,10.82,0,0,1,1.57-5.64Z"/><path class="cls-1" d="M87,125.87a10.87,10.87,0,0,1-1.56,5.63h-15v-15A10.93,10.93,0,0,1,87,125.87Z"/><path class="cls-1" d="M175.44,116.49v15h-15a10.78,10.78,0,0,1-1.57-5.63,10.93,10.93,0,0,1,16.58-9.38Z"/><circle class="cls-5" cx="122.91" cy="70.34" r="9.31" transform="matrix(0.16, -0.99, 0.99, 0.16, 33.79, 180.4)"/><rect class="cls-1" x="52.46" y="195.91" width="207.88" height="7.48"/><rect class="cls-2" x="191" y="203.39" width="67.54" height="112.77"/><rect class="cls-2" x="55.03" y="203.39" width="67.54" height="112.77"/><rect class="cls-1" x="55.03" y="203.39" width="2.31" height="112.77"/><rect class="cls-1" x="191" y="203.39" width="2.31" height="112.77"/><polygon class="cls-6" points="90.5 177.88 78.08 177.88 79.08 195.91 89.5 195.91 90.5 177.88"/><rect class="cls-6" x="133.44" y="188.09" width="64.89" height="7.82"/><rect class="cls-4" x="168.42" y="189.01" width="29.92" height="5.99"/><ellipse id="_Path_" data-name="&lt;Path&gt;" class="cls-2" cx="250" cy="350" rx="193.89" ry="11.32"/><circle class="cls-3" cx="340.71" cy="248.3" r="31.68"/><path class="cls-7" d="M340.71,280.37a32.07,32.07,0,1,1,32.06-32.07A32.1,32.1,0,0,1,340.71,280.37Zm0-63.36A31.29,31.29,0,1,0,372,248.3,31.32,31.32,0,0,0,340.71,217Z"/><rect class="cls-7" x="335.61" y="230.34" width="10.2" height="35.92"/><rect class="cls-7" x="335.61" y="230.34" width="10.2" height="35.92" transform="translate(589.01 -92.4) rotate(90)"/><path class="cls-8" d="M126.11,8.83l-.68-.73A30.75,30.75,0,0,1,142.24,0l.14,1A29.74,29.74,0,0,0,126.11,8.83Z"/><path class="cls-8" d="M118.71,19.76l-.93-.36a30.77,30.77,0,0,1,4-7.14l.8.6A30,30,0,0,0,118.71,19.76Z"/><circle class="cls-8" cx="146.61" cy="30.63" r="27.44"/><path class="cls-3" d="M163,18.27a11.46,11.46,0,0,0-16.36-.15,11.45,11.45,0,0,0-16.35.15,11.71,11.71,0,0,0,.41,16.32l13,13a4.2,4.2,0,0,0,5.94,0l13-13A11.71,11.71,0,0,0,163,18.27Z"/><path class="cls-8" d="M146.61,42.62h0a1,1,0,0,1-.91-.68L139.87,25l-2.42,7.08a1,1,0,0,1-.95.67h-9.69a1,1,0,1,1,0-2h9l3.14-9.17a1,1,0,0,1,1.89,0l5.89,17.23,5.72-13.47a1,1,0,0,1,.86-.61,1,1,0,0,1,.93.51l3.08,5.51h9.11a1,1,0,0,1,0,2h-9.69a1,1,0,0,1-.88-.51L153.47,28l-5.94,14A1,1,0,0,1,146.61,42.62Z"/><path class="cls-9" d="M298.86,315H194.49a12.26,12.26,0,0,1-12.36-13.25L199,51.8a14.44,14.44,0,0,1,14.15-13.25H317.54A12.26,12.26,0,0,1,329.9,51.8L313,301.71A14.43,14.43,0,0,1,298.86,315Z"/><path class="cls-9" d="M322,140.32h-2.63a3.42,3.42,0,0,1-3.45-3.7l3.23-47.79a4,4,0,0,1,3.95-3.7h2.63a3.42,3.42,0,0,1,3.45,3.7l-3.23,47.79A4,4,0,0,1,322,140.32Z"/><path class="cls-10" d="M197.48,108.44h-2.62a2.8,2.8,0,0,1-2.83-3l1.17-17.26a3.3,3.3,0,0,1,3.23-3h2.63a2.8,2.8,0,0,1,2.82,3l-1.17,17.26A3.29,3.29,0,0,1,197.48,108.44Z"/><path class="cls-10" d="M195.4,139.26h-2.63a2.8,2.8,0,0,1-2.82-3L191.12,119a3.29,3.29,0,0,1,3.23-3H197a2.8,2.8,0,0,1,2.82,3l-1.17,17.25A3.29,3.29,0,0,1,195.4,139.26Z"/><path class="cls-8" d="M296.65,315H192.28a12.26,12.26,0,0,1-12.36-13.25L196.8,51.8A14.44,14.44,0,0,1,211,38.55H315.33A12.26,12.26,0,0,1,327.69,51.8L310.8,301.71A14.43,14.43,0,0,1,296.65,315Z"/><polygon class="cls-11" points="181.02 298.95 197.5 55 326.56 55 310.08 298.95 181.02 298.95"/><polygon class="cls-12" points="231.97 298.95 278.03 55 306.94 55 260.88 298.95 231.97 298.95"/><polygon class="cls-12" points="210.13 298.95 256.19 55 270.84 55 224.78 298.95 210.13 298.95"/><path class="cls-3" d="M250.14,44.68h25.17a1.5,1.5,0,0,1,1.52,1.63h0a1.77,1.77,0,0,1-1.74,1.63H249.92a1.51,1.51,0,0,1-1.52-1.63h0A1.77,1.77,0,0,1,250.14,44.68Z"/><polygon class="cls-13" points="244.9 339 236.08 339.85 232.9 319.5 241.72 318.65 244.9 339"/><path class="cls-9" d="M235.07,335.54l9.24-2.88a.66.66,0,0,1,.82.38l3,7.34a1.51,1.51,0,0,1-1,1.95c-3.34,1-6.52,1.24-10.55,3-4.71,2-6.68,4.68-11.75,4.68-3.63,0-4.45-3.33-2.91-3.79,7-2.12,6.08-3.86,11.16-9.33A4.68,4.68,0,0,1,235.07,335.54Z"/><polygon class="cls-14" points="232.9 319.5 234.54 329.99 243.37 329.15 241.73 318.65 232.9 319.5"/><path class="cls-3" d="M239.28,62.35c-11.57-1.36-23.08-.44-34.63,1.8a9.23,9.23,0,0,0-7.41,8c-1.25,11.06-2.68,35.85,2.9,72.83l47.28-4c.09-6.71-4.68-37.28-.74-69A8.49,8.49,0,0,0,239.28,62.35Z"/><path class="cls-9" d="M211.75,71.83l1.69,3.39a1.05,1.05,0,0,0,.89.58l1.83.1a1.42,1.42,0,0,0,.91-.28l3.15-2.35-3.89-2.83Z"/><path class="cls-9" d="M216.22,74.93a3.08,3.08,0,0,0-2.13-.17c-1.49,5.25-3.12,20.32-3.29,27,4.52,13.16,6,14.5,6,14.5l2.29-15.85S216.52,84.2,216.22,74.93Z"/><path class="cls-13" d="M229.27,39.55c-1.08,6.52-2,18.44,2.68,22.65-3.43,3.6-7.92,7.77-15.62,8.24s-6.51-4.86-4.56-7.71c7.19-1.92,6.84-7.28,5.43-12.29Z"/><path class="cls-2" d="M233.91,61.63a9.6,9.6,0,0,0-1.69-.55.68.68,0,0,0-.75.3c-.74,1.27-3,6.9-15.14,9.06,2,1.18,4.65,4.84,5.79,6.6,3.64-1.89,13.11-7.54,12.21-14.85A.74.74,0,0,0,233.91,61.63Z"/><path class="cls-2" d="M211.84,63a.7.7,0,0,0-.82-.84,9.39,9.39,0,0,0-1.24.33.76.76,0,0,0-.26.15c-.93.86-6,8.17-1.25,14.1,1-1.61,4.45-5.27,8.06-6.33C212.91,68.89,211.23,66,211.84,63Z"/><path class="cls-14" d="M224.35,44l-7.14,6.44a20.62,20.62,0,0,1,.72,3.56c2.76-.47,6.47-3.6,6.67-6.51A9.44,9.44,0,0,0,224.35,44Z"/><path class="cls-9" d="M214.81,19.85c-6.16,2.4-6.56,7.47-6,13s6.58,1.87,7.92-1.59S223.34,16.51,214.81,19.85Z"/><path class="cls-13" d="M234.46,30.88c-1.71,8.71-2.28,13.88-7.26,17.89-7.51,6-17.68.82-18.58-8.17-.81-8.08,2.12-21,11.09-23.51A11.72,11.72,0,0,1,234.46,30.88Z"/><path class="cls-9" d="M234.1,38.09c-7.33.39-5.78-3.78-4.45-6.16s-1.38-6.34.39-8.39c-3.16,1.26-6.49.22-10.72-2.73-3.28-2.28-7.39,6.87-11.39,2.28-3.78-4.33-.27-10.86,8.81-11.91s10.73,5.37,16.69,4.8,3.89,4.33,2.72,5.33C241.15,21.65,243.88,26.43,234.1,38.09Z"/><path class="cls-9" d="M235,21.93a7.34,7.34,0,0,0,3.81-6.39C240.79,19,240.58,23,235,21.93Z"/><path class="cls-9" d="M216,40.18a6,6,0,0,0,4.58-1.08.2.2,0,0,0,0-.29.21.21,0,0,0-.29,0,5.77,5.77,0,0,1-5.09.79.23.23,0,0,0-.27.14.21.21,0,0,0,.14.26A6.45,6.45,0,0,0,216,40.18Z"/><path class="cls-13" d="M236.24,40.74a8.57,8.57,0,0,1-5.6,3.22c-2.91.38-3.88-2.33-2.65-4.87,1.1-2.27,3.94-5.21,6.67-4.42S237.91,38.56,236.24,40.74Z"/><path class="cls-9" d="M233.34,230.13c.35-26.12,3.69-88.3,3.69-88.3l-36.86,3.11s7.33,64.09,11.75,90.73c4.6,27.69,18.71,92.55,18.71,92.55l15-1.27S240.15,250.31,233.34,230.13Z"/><polygon class="cls-15" points="229.73 328.64 247.52 327.13 246.82 321.39 228.28 322.63 229.73 328.64"/><path class="cls-9" d="M221.32,31.4c-.09.71-.55,1.25-1,1.2s-.76-.68-.66-1.39.55-1.25,1-1.2S221.42,30.68,221.32,31.4Z"/><path class="cls-9" d="M213.16,30.72c-.09.72-.55,1.25-1,1.2s-.76-.67-.66-1.39.55-1.25,1-1.19S213.26,30,213.16,30.72Z"/><path class="cls-16" d="M215.46,31.6a24.82,24.82,0,0,1-4.3,5c1.06,1.11,3.25.8,3.25.8Z"/><path class="cls-17" d="M208,30.94c-.15,1.14,1,2.09,2.59,2.29s3.06-.67,3.2-1.81"/><path class="cls-17" d="M217.45,32c-.22,1.13.89,2.15,2.45,2.45s3.09-.5,3.3-1.62"/><path class="cls-9" d="M220.52,34.72a4.89,4.89,0,0,1-.54,0,3.8,3.8,0,0,1-2.07-.93,2.08,2.08,0,0,1-.72-1.77,5,5,0,0,0-1.6-.4,3.49,3.49,0,0,0-1.69,0c-.14,1.22-1.66,2.06-3.36,1.85a3.67,3.67,0,0,1-2.07-.93,2.08,2.08,0,0,1-.72-1.77l.48.06a1.59,1.59,0,0,0,.57,1.36,3.18,3.18,0,0,0,1.8.8c1.44.19,2.72-.48,2.85-1.48.07-.56,1.23-.53,2.19-.4s2.1.39,2,.94a1.61,1.61,0,0,0,.57,1.36,3.44,3.44,0,0,0,3.75.48,1.6,1.6,0,0,0,.9-1.17l0-.24,12.34,1.59-.06.48L223.32,33a2.15,2.15,0,0,1-1.1,1.29A3.53,3.53,0,0,1,220.52,34.72Z"/><path class="cls-9" d="M224.46,28.26a.36.36,0,0,0,.2-.06.43.43,0,0,0,.16-.58,4.05,4.05,0,0,0-3.14-2.11.44.44,0,0,0-.45.41.42.42,0,0,0,.39.44h0a3.18,3.18,0,0,1,2.47,1.69A.42.42,0,0,0,224.46,28.26Z"/><path class="cls-9" d="M210.52,27.13a.42.42,0,0,0,.37-.16,3.42,3.42,0,0,1,2.76-1.33.42.42,0,0,0,.46-.38.41.41,0,0,0-.36-.46,4.3,4.3,0,0,0-3.5,1.65.42.42,0,0,0,.05.59A.51.51,0,0,0,210.52,27.13Z"/><path class="cls-9" d="M264.05,225.92c-7.65-39.32-9.37-70.07-16.63-85l-35.71,4s21.27,58.59,31.66,83.6c10.79,26,32.09,70.41,32.09,70.41H293.3S276.65,243.83,264.05,225.92Z"/><path class="cls-13" d="M150.86,77.07,147,74.62a3.24,3.24,0,0,0-4.06.48l-2.62,2.76a3,3,0,0,0,.26,4.37l1.87,1.59a15.12,15.12,0,0,0,5.57,3l5.65,1.67,3.71-4C158.51,80.33,150.86,77.07,150.86,77.07Z"/><path class="cls-10" d="M208,75.2c-1.4,3.42-2.77,6.6-4.26,9.85s-3,6.45-4.67,9.65-3.45,6.36-5.47,9.54c-1,1.58-2.11,3.16-3.37,4.75a30.34,30.34,0,0,1-4.6,4.77,16.51,16.51,0,0,1-3.69,2.28c-.42.16-.81.32-1.27.46l-.7.19a8.35,8.35,0,0,1-1.07.19,9.74,9.74,0,0,1-3.64-.27,14.56,14.56,0,0,1-4.18-1.9,24,24,0,0,1-2.75-2,65.77,65.77,0,0,1-7.95-8.28c-2.33-2.79-4.53-5.6-6.64-8.47s-4.14-5.69-6.22-8.7l11.06-7.14a149.17,149.17,0,0,0,11.56,16.15,55.19,55.19,0,0,0,6.37,6.59,12.56,12.56,0,0,0,1.41,1c.37.25.74.35.48.26a3.51,3.51,0,0,0-1.51,0l-.08,0c-.05,0-.05,0-.06,0a5.24,5.24,0,0,0,.65-.48,18.09,18.09,0,0,0,2.47-2.75c.85-1.13,1.7-2.41,2.51-3.74a93,93,0,0,0,4.52-8.54c1.4-3,2.75-6,4-9.12s2.44-6.29,3.45-9.33Z"/><g class="cls-18"><path class="cls-7" d="M208,75.2c-1.4,3.42-2.77,6.6-4.26,9.85s-3,6.45-4.67,9.65-3.45,6.36-5.47,9.54c-1,1.58-2.11,3.16-3.37,4.75a30.34,30.34,0,0,1-4.6,4.77,16.51,16.51,0,0,1-3.69,2.28c-.42.16-.81.32-1.27.46l-.7.19a8.35,8.35,0,0,1-1.07.19,9.74,9.74,0,0,1-3.64-.27,14.56,14.56,0,0,1-4.18-1.9,24,24,0,0,1-2.75-2,65.77,65.77,0,0,1-7.95-8.28c-2.33-2.79-4.53-5.6-6.64-8.47s-4.14-5.69-6.22-8.7l11.06-7.14a149.17,149.17,0,0,0,11.56,16.15,55.19,55.19,0,0,0,6.37,6.59,12.56,12.56,0,0,0,1.41,1c.37.25.74.35.48.26a3.51,3.51,0,0,0-1.51,0l-.08,0c-.05,0-.05,0-.06,0a5.24,5.24,0,0,0,.65-.48,18.09,18.09,0,0,0,2.47-2.75c.85-1.13,1.7-2.41,2.51-3.74a93,93,0,0,0,4.52-8.54c1.4-3,2.75-6,4-9.12s2.44-6.29,3.45-9.33Z"/></g><path class="cls-10" d="M234.18,59.85c-3.75,7-17.1,33.67-18.72,50.13-5.91-15-4.62-48.18-4.62-48.18a44.43,44.43,0,0,0-12.27,3A7.41,7.41,0,0,0,194,71.06a262.89,262.89,0,0,0,1.62,51.47c4.15,32.3,8,82.53,8,82.53s33.05-1.38,58.55-6.76c-3.11-24.69-13.75-66.07-13.85-77.15-.12-14.26.21-42.14.66-53.78a6.89,6.89,0,0,0-5.52-7.07A34.57,34.57,0,0,0,234.18,59.85Z"/><path class="cls-15" d="M234.18,59.85c-3.75,7-17.1,33.67-18.72,50.13-5.91-15-4.62-48.18-4.62-48.18a44.43,44.43,0,0,0-12.27,3A7.41,7.41,0,0,0,194,71.06a262.89,262.89,0,0,0,1.62,51.47c4.15,32.3,8,82.53,8,82.53s33.05-1.38,58.55-6.76c-3.11-24.69-13.75-66.07-13.85-77.15-.12-14.26.21-42.16.66-53.79a6.78,6.78,0,0,0-5.21-7A34.31,34.31,0,0,0,234.18,59.85Z"/><path class="cls-3" d="M226.39,199.7C220.65,168,216.1,121.56,215.73,116l.51,0c.37,5.59,4.93,52,10.66,83.68Z"/><path class="cls-3" d="M223.53,143.36H193.05a2.86,2.86,0,0,1-2.64-2.17L180.22,93.82a1.7,1.7,0,0,1,1.7-2.17h30.47A2.85,2.85,0,0,1,215,93.82l10.19,47.37A1.7,1.7,0,0,1,223.53,143.36Z"/><path class="cls-7" d="M222.58,143.8h-31a2.91,2.91,0,0,1-2.69-2.21L178.54,93.42a1.74,1.74,0,0,1,1.74-2.21h31A2.91,2.91,0,0,1,214,93.42l10.36,48.17A1.73,1.73,0,0,1,222.58,143.8Z"/><path class="cls-13" d="M226.13,116.58l-7.71-.29a6.61,6.61,0,0,0-2.71.48l-4,1.59a3,3,0,0,0-1.64,4.06l1.6,3.45a3.22,3.22,0,0,0,3.7,1.74l4.41-1.09s8.28-.66,8.58-5Z"/><path class="cls-10" d="M247.42,64.14c1.91,3,3.66,5.74,5.38,8.68s3.41,5.85,5,8.89,3.1,6.18,4.47,9.54a48.59,48.59,0,0,1,1.82,5.39,22.59,22.59,0,0,1,.88,6.87v.39s0,.09,0,.2c0,.36-.1.72-.17,1.08s-.16.63-.26.95-.21.55-.32.82a11.26,11.26,0,0,1-1.46,2.43,17.45,17.45,0,0,1-2.77,2.76,36.41,36.41,0,0,1-5,3.31,93,93,0,0,1-9.52,4.53c-3.15,1.35-6.29,2.57-9.45,3.72s-6.27,2.26-9.56,3.36l-3.8-12.6c3-.82,6-1.83,9-2.85s6-2.16,8.84-3.35a77.92,77.92,0,0,0,8.14-3.93,23.49,23.49,0,0,0,3.17-2.11,3.81,3.81,0,0,0,.7-.69,1.07,1.07,0,0,0-.2.33c0,.09-.05.15-.1.26a2.37,2.37,0,0,0-.09.36,2.43,2.43,0,0,0-.08.47c0,.06,0,.06,0,0v-.06a11.76,11.76,0,0,0-.55-2.79,36.08,36.08,0,0,0-1.42-3.85A78.1,78.1,0,0,0,246,88.22c-1.56-2.68-3.22-5.36-5-8s-3.6-5.28-5.43-7.67Z"/><g class="cls-18"><path class="cls-7" d="M247.42,64.14c1.91,3,3.66,5.74,5.38,8.68s3.41,5.85,5,8.89,3.1,6.18,4.47,9.54a48.59,48.59,0,0,1,1.82,5.39,22.59,22.59,0,0,1,.88,6.87v.39s0,.09,0,.2c0,.36-.1.72-.17,1.08s-.16.63-.26.95-.21.55-.32.82a11.26,11.26,0,0,1-1.46,2.43,17.45,17.45,0,0,1-2.77,2.76,36.41,36.41,0,0,1-5,3.31,93,93,0,0,1-9.52,4.53c-3.15,1.35-6.29,2.57-9.45,3.72s-6.27,2.26-9.56,3.36l-3.8-12.6c3-.82,6-1.83,9-2.85s6-2.16,8.84-3.35a77.92,77.92,0,0,0,8.14-3.93,23.49,23.49,0,0,0,3.17-2.11,3.81,3.81,0,0,0,.7-.69,1.07,1.07,0,0,0-.2.33c0,.09-.05.15-.1.26a2.37,2.37,0,0,0-.09.36,2.43,2.43,0,0,0-.08.47c0,.06,0,.06,0,0v-.06a11.76,11.76,0,0,0-.55-2.79,36.08,36.08,0,0,0-1.42-3.85A78.1,78.1,0,0,0,246,88.22c-1.56-2.68-3.22-5.36-5-8s-3.6-5.28-5.43-7.67Z"/></g><path class="cls-9" d="M237.3,98.83a.38.38,0,0,1-.33-.18.39.39,0,0,1,.12-.55l1.56-1a8.5,8.5,0,0,0,3.8-8.86l-3.14-15.91a5.39,5.39,0,0,0-10.46-.43L224.4,87.5a8.47,8.47,0,0,0,3,9.14l1.48,1.12a.41.41,0,0,1,.07.56.39.39,0,0,1-.55.07L227,97.27a9.29,9.29,0,0,1-3.33-10l4.46-15.59a6.18,6.18,0,0,1,12,.5l3.14,15.91a9.28,9.28,0,0,1-4.15,9.68l-1.57,1A.39.39,0,0,1,237.3,98.83Z"/><path class="cls-9" d="M239.7,72.66h0l-11.23-.47a.39.39,0,0,1-.38-.41.42.42,0,0,1,.42-.38l11.22.47a.4.4,0,0,1,.38.41A.38.38,0,0,1,239.7,72.66Z"/><path class="cls-9" d="M234.24,68a.41.41,0,0,1-.4-.39c0-2-.62-5.47-2.49-6.24a.39.39,0,0,1-.22-.51.4.4,0,0,1,.52-.22c2.77,1.14,3,6.36,3,6.95a.41.41,0,0,1-.39.41Z"/><path class="cls-9" d="M199.89,81.6h-.08a.4.4,0,0,1-.31-.47c1.32-6.57,6.78-17,11.59-20a.4.4,0,0,1,.54.12.39.39,0,0,1-.12.55c-4.65,2.94-9.95,13-11.23,19.47A.4.4,0,0,1,199.89,81.6Z"/><path class="cls-3" d="M203.17,82.63c-.62,1.59-2,2.55-3,2.14s-1.39-2-.77-3.63,2-2.55,3-2.14S203.8,81,203.17,82.63Z"/><path class="cls-3" d="M229.57,98.11c0,.75-.46,1.34-.95,1.32s-.87-.64-.84-1.39.46-1.34.95-1.32S229.6,97.37,229.57,98.11Z"/><path class="cls-3" d="M238.19,98.47c0,.75-.45,1.34-.95,1.32s-.86-.64-.83-1.39.45-1.34,1-1.32S238.22,97.73,238.19,98.47Z"/><path class="cls-7" d="M407.77,84.61l-1-.06a15.41,15.41,0,0,0-15.49-16.61v-1a16.4,16.4,0,0,1,16.49,17.67Z"/><rect class="cls-7" x="402.54" y="92.8" width="8.28" height="1" transform="translate(286.59 492.88) rotate(-86.19)"/><path class="cls-7" d="M391.28,70.44h-69a15.18,15.18,0,0,0-14.88,13.94l-.63,9.29a12.9,12.9,0,0,0,13,13.93h69l13.38,8.26,2.12-31.48A12.9,12.9,0,0,0,391.28,70.44Z"/><rect class="cls-3" x="323.87" y="83.75" width="63.91" height="2.32"/><rect class="cls-3" x="339.77" y="91.98" width="47.45" height="2.32"/><path class="cls-3" d="M287.48,120.14H358a13.19,13.19,0,0,1,13.29,14.25l-.64,9.5a15.53,15.53,0,0,1-15.21,14.25H284.91l-14.82,8.45,2.18-32.2A15.52,15.52,0,0,1,287.48,120.14Z"/><path class="cls-19" d="M287.48,120.14H358a13.19,13.19,0,0,1,13.29,14.25l-.64,9.5a15.53,15.53,0,0,1-15.21,14.25H284.91l-14.82,8.45,2.18-32.2A15.52,15.52,0,0,1,287.48,120.14Z"/><rect class="cls-15" x="289.06" y="133.75" width="65.36" height="2.38"/><rect class="cls-15" x="288.49" y="142.16" width="25.83" height="2.38"/><rect class="cls-15" x="320.65" y="142.16" width="16.5" height="2.38"/></g></g></svg>