<svg xmlns="http://www.w3.org/2000/svg" viewBox="0 0 224.93 224.93"><defs><style>.cls-1{isolation:isolate;}.cls-2{fill:#fff;}.cls-3{fill:#049dd9;}.cls-4{fill:#06c7f2;}.cls-5{fill:#71c6d9;}.cls-6{fill:#03738b;}.cls-7{fill:#ff7f97;}.cls-8{fill:#f43869;}.cls-9{opacity:0.2;}.cls-15,.cls-9{mix-blend-mode:overlay;}.cls-10{fill:#ba2b50;}.cls-11{fill:#ffa888;}.cls-12{fill:#353a66;}.cls-13{fill:#ffb502;}.cls-14{fill:#a9c8ff;}.cls-15,.cls-16{opacity:0.3;}.cls-17{fill:#e8a000;}.cls-18{fill:#eee;}.cls-19{fill:#ff8f18;}.cls-20{fill:#9797ff;}.cls-21{fill:#c8ddfc;}.cls-22{fill:#8a1a19;}.cls-23{fill:#721414;}</style></defs><g class="cls-1"><g id="Layer_2" data-name="Layer 2"><g id="Layer_1-2" data-name="Layer 1"><rect class="cls-2" width="224.93" height="224.93"/><polygon class="cls-3" points="66.66 197.84 66.65 196.07 62.15 196.09 62.17 197.85 66.66 197.84"/><polygon class="cls-3" points="73.36 197.82 73.35 196.06 68.85 196.07 68.86 197.83 73.36 197.82"/><rect class="cls-3" x="75.55" y="196.05" width="4.5" height="1.76" transform="translate(-0.32 0.13) rotate(-0.09)"/><rect class="cls-3" x="82.25" y="196.03" width="4.49" height="1.76" transform="translate(-0.21 0.09) rotate(-0.06)"/><polygon class="cls-3" points="93.44 197.77 93.44 196 88.95 196.01 88.95 197.78 93.44 197.77"/><polygon class="cls-3" points="100.14 197.75 100.14 195.98 95.64 196 95.64 197.76 100.14 197.75"/><polygon class="cls-3" points="106.83 197.73 106.84 195.97 102.34 195.98 102.34 197.74 106.83 197.73"/><polygon class="cls-3" points="113.53 197.71 113.54 195.95 109.04 195.96 109.03 197.73 113.53 197.71"/><path class="cls-3" d="M120.34,197.52l-.23-1.75a25.46,25.46,0,0,1-2.89.17h-1.48l0,1.77h1.5A24.89,24.89,0,0,0,120.34,197.52Z"/><path class="cls-3" d="M127,195.63l-.71-1.61-.62.26a14,14,0,0,1-1.4.53,13.22,13.22,0,0,1-1.42.42l-.65.18.39,1.72.7-.18c.43-.12,1-.26,1.54-.47s1.1-.38,1.5-.56Z"/><path class="cls-3" d="M132.88,192l-1.13-1.36-.54.42a12.94,12.94,0,0,1-1.2.89,14.21,14.21,0,0,1-1.24.81l-.59.34.86,1.54.63-.37a15.53,15.53,0,0,0,1.35-.87,14.73,14.73,0,0,0,1.28-1Z"/><path class="cls-3" d="M137.55,186.86l-1.45-1-.4.55c-.24.33-.56.76-.92,1.17s-.7.83-1,1.11l-.48.49,1.25,1.25.5-.52a15.37,15.37,0,0,0,1.07-1.2,14.47,14.47,0,0,0,1-1.26Z"/><path class="cls-3" d="M140.62,180.63l-1.68-.53s-.33,1-.76,2a20,20,0,0,1-1,1.94l1.54.86a21.08,21.08,0,0,0,1-2.09C140.26,181.75,140.62,180.63,140.62,180.63Z"/><path class="cls-3" d="M141.61,173.74l-1.76,0a6,6,0,0,1,0,.67c0,.41,0,.94-.07,1.48a19,19,0,0,1-.32,2.13l1.73.35a20.87,20.87,0,0,0,.35-2.32c.07-.59.05-1.18.07-1.62A7.07,7.07,0,0,0,141.61,173.74Z"/><path class="cls-3" d="M140.28,166.9l-1.65.61s.08.26.21.65a14,14,0,0,1,.42,1.42,17.33,17.33,0,0,1,.41,2.11l1.75-.24a20.77,20.77,0,0,0-.45-2.31,13.21,13.21,0,0,0-.46-1.54C140.38,167.18,140.28,166.9,140.28,166.9Z"/><path class="cls-3" d="M136.94,160.84l-1.42,1,.4.55c.24.33.52.8.81,1.26a11.43,11.43,0,0,1,.74,1.29l.31.6,1.59-.78s-.13-.26-.34-.65a13.34,13.34,0,0,0-.79-1.39c-.32-.49-.62-1-.87-1.34Z"/><path class="cls-3" d="M132.32,155.78l-1.22,1.28,1.59,1.56c.39.39.78.77,1,1.09l.45.51,1.34-1.15-.48-.55c-.28-.33-.69-.74-1.1-1.14Z"/><path class="cls-3" d="M127.78,151l-1.37,1.1s.74.92,1.53,1.73l1.56,1.65,1.26-1.24-1.52-1.61C128.45,151.86,127.78,151,127.78,151Z"/><path class="cls-3" d="M123.92,145.89l-1.66.69,1.3,1.94,1.4,1.85,1.48-1-1.31-1.72C124.53,146.78,123.92,145.89,123.92,145.89Z"/><path class="cls-3" d="M120.93,140.19l-1.84.25s.1.27.27.68a15.45,15.45,0,0,0,.66,1.45c.26.52.5,1.05.71,1.43s.36.63.36.63l1.74-.56-.34-.58c-.2-.35-.43-.84-.67-1.32a13.85,13.85,0,0,1-.63-1.35C121,140.44,120.93,140.19,120.93,140.19Z"/><path class="cls-3" d="M119.29,134l-1.91-.2s0,.28.09.71a10.93,10.93,0,0,0,.28,1.57,18.62,18.62,0,0,0,.58,2.24l1.88-.1a18.09,18.09,0,0,1-.56-2.09,10.7,10.7,0,0,1-.27-1.46C119.32,134.26,119.29,134,119.29,134Z"/><path class="cls-3" d="M119.72,127.61l-1.84-.66a5.41,5.41,0,0,0-.19.7c-.08.43-.18,1-.29,1.57s-.09,1.15-.13,1.58a3.64,3.64,0,0,0,0,.72l1.91.36a3.52,3.52,0,0,1,0-.67l.11-1.48c.1-.53.19-1.07.27-1.46A3.89,3.89,0,0,1,119.72,127.61Z"/><path class="cls-3" d="M122.7,122l-1.63-1.07s-.72.9-1.35,1.88c-.29.5-.6,1-.79,1.38s-.29.66-.29.66l1.79.81.27-.62c.18-.37.47-.83.73-1.29C122,122.81,122.7,122,122.7,122Z"/><path class="cls-3" d="M127.7,118l-1.3-1.39a15.21,15.21,0,0,0-2,1.25,8.8,8.8,0,0,0-1.25,1l-.55.48,1.53,1.18.52-.44a9.58,9.58,0,0,1,1.17-.9A15.32,15.32,0,0,1,127.7,118Z"/><path class="cls-3" d="M133.67,115.59l-.9-1.61-.7.19c-.42.11-1,.31-1.51.51a19.58,19.58,0,0,0-2.15.87l1.18,1.48A30.86,30.86,0,0,1,133.67,115.59Z"/><path class="cls-3" d="M140,114.46l-.42-1.74s-.29,0-.72.08l-1.58.22c-.58.07-1.15.18-1.58.27l-.71.15.74,1.67.66-.14c.4-.08.93-.18,1.47-.24l1.47-.2A6.67,6.67,0,0,1,140,114.46Z"/><path class="cls-3" d="M146.45,114.27l0-1.77s-1.13-.06-2.31,0l-1.6,0c-.43,0-.72,0-.72,0l.25,1.76a5.13,5.13,0,0,1,.68,0l1.48,0C145.34,114.21,146.45,114.27,146.45,114.27Z"/><path class="cls-3" d="M153,114.77l.21-1.76s-1.12-.17-2.26-.24l-2.27-.19-.1,1.77,2.21.18C151.93,114.6,153,114.77,153,114.77Z"/><path class="cls-4" d="M154.3,113.36a4,4,0,1,1-4-4A4,4,0,0,1,154.3,113.36Z"/><path class="cls-4" d="M66.52,196.61a4.05,4.05,0,1,1-4.07-4A4.06,4.06,0,0,1,66.52,196.61Z"/><path class="cls-5" d="M90.27,36.37l-.08.75s-.49,0-1-.13-1-.19-1-.19l.18-.74s.46.11.93.18S90.27,36.37,90.27,36.37Z"/><path class="cls-5" d="M93.13,36.43l0,.75a9.59,9.59,0,0,1-1,0l-1,0,0-.76,1,0C92.65,36.47,93.13,36.43,93.13,36.43Z"/><path class="cls-5" d="M95.93,36l.2.74-1,.22c-.5.1-1,.15-1,.15l-.09-.75s.48-.05.94-.14Z"/><path class="cls-5" d="M98.52,34.91l.4.64L98,36a3.37,3.37,0,0,1-.64.28l-.3.1-.26-.71a5.32,5.32,0,0,0,.87-.35Z"/><path class="cls-5" d="M100.67,33.12l.56.51-.71.71a4.77,4.77,0,0,1-.79.65l-.46-.61a5,5,0,0,0,.74-.59Z"/><path class="cls-5" d="M102.16,30.75l.69.33-.44.92-.58.83-.6-.44.53-.78Z"/><polygon class="cls-5" points="103.11 27.95 103.78 28.36 103.25 30.18 102.55 29.9 103.11 27.95"/><path class="cls-5" d="M104.06,25.09l.57.59s-.17.44-.35.88-.26.91-.26.91l-.64-.48s.12-.49.29-1Z"/><path class="cls-5" d="M105.57,22.5l.44.74s-.29.38-.54.77l-.45.83-.54-.64.5-.88C105.25,22.9,105.57,22.5,105.57,22.5Z"/><path class="cls-5" d="M107.73,20.45l.29.84-.75.57c-.35.32-.67.67-.67.67l-.4-.78s.35-.36.72-.7Z"/><path class="cls-5" d="M110.49,19.34l.12.89a6.77,6.77,0,0,0-1.79.61l-.23-.87A7.57,7.57,0,0,1,110.49,19.34Z"/><path class="cls-5" d="M113.47,19.39l-.07.89-.93-.15h-1l0-.91s.51,0,1,0Z"/><path class="cls-5" d="M116.21,20.57l-.25.84a8,8,0,0,0-1.68-.85l.14-.89A8.58,8.58,0,0,1,116.21,20.57Z"/><path class="cls-5" d="M118.44,22.56l-.42.75-.18-.23a4.59,4.59,0,0,0-.44-.48l-.69-.64.3-.82.75.68a4.19,4.19,0,0,1,.47.5C118.35,22.47,118.44,22.56,118.44,22.56Z"/><path class="cls-5" d="M120.09,25.07l-.54.6-.45-.83-.52-.8.46-.7.56.84C119.85,24.62,120.09,25.07,120.09,25.07Z"/><path class="cls-5" d="M121.31,27.83l-.65.42-.34-.88c-.17-.44-.38-.87-.38-.87l.59-.55s.22.46.41.93Z"/><path class="cls-5" d="M122.37,30.64l-.7.28s-.19-.46-.35-.91-.33-.89-.33-.89l.67-.36.35.95C122.19,30.19,122.37,30.64,122.37,30.64Z"/><path class="cls-5" d="M123.62,33.19l-.63.41s-.27-.43-.51-.87l-.44-.91.69-.31.41.86C123.37,32.79,123.62,33.19,123.62,33.19Z"/><path class="cls-5" d="M125.55,35.12l-.41.64a6.66,6.66,0,0,1-1.55-1.35l.58-.49A5.65,5.65,0,0,0,125.55,35.12Z"/><path class="cls-5" d="M128.13,36l-.11.75-1-.18c-.49-.16-1-.35-1-.35l.3-.69.87.31Z"/><path class="cls-5" d="M131,36l.07.76-1,.08-1,0,0-.76.95,0Z"/><rect class="cls-5" x="127.52" y="15.23" width="17.2" height="12.99" rx="1.96"/><rect class="cls-4" x="132.65" y="68.22" width="8.88" height="7.95" rx="1.96"/><rect class="cls-5" x="126.7" y="61.66" width="20.84" height="9.66" rx="1.96"/><rect class="cls-3" x="122.24" y="22.75" width="29.31" height="44.36" rx="1.96"/><path class="cls-3" d="M90.88,68.34A25.82,25.82,0,0,0,116.7,94.16h6.56V86.7H116a18.27,18.27,0,0,1,0-36.53h7.23V42.52H116.7A25.82,25.82,0,0,0,90.88,68.34Z"/><rect class="cls-5" x="122.79" y="85.3" width="38.67" height="20.18" rx="5.88"/><rect class="cls-4" x="114.27" y="80.55" width="17.06" height="24.93" rx="5.88"/><path class="cls-3" d="M163.28,98.25H102.92a2,2,0,0,0-2,2V108h64.28v-7.76A2,2,0,0,0,163.28,98.25Z"/><path class="cls-5" d="M126.7,89.21a3.91,3.91,0,1,1-3.91-3.91A3.91,3.91,0,0,1,126.7,89.21Z"/><path class="cls-4" d="M132.23,46.74a9.43,9.43,0,1,1-9.43-9.43A9.44,9.44,0,0,1,132.23,46.74Z"/><path class="cls-5" d="M127.52,46.74A4.72,4.72,0,1,1,122.8,42,4.72,4.72,0,0,1,127.52,46.74Z"/><path class="cls-6" d="M80.9,89.92l-.11-.75a16.37,16.37,0,0,0-2,.44l.23.72A13.21,13.21,0,0,1,80.9,89.92Z"/><path class="cls-6" d="M83.8,89.81l.06-.75a14.3,14.3,0,0,0-2.07,0l.06.75A14.1,14.1,0,0,1,83.8,89.81Z"/><path class="cls-6" d="M86.56,90.5l.32-.68a8.85,8.85,0,0,0-2-.63l-.13.74A8.19,8.19,0,0,1,86.56,90.5Z"/><path class="cls-6" d="M88.74,92.23l.6-.46a7.47,7.47,0,0,0-.72-.78,5.29,5.29,0,0,0-.83-.66l-.42.63a5.65,5.65,0,0,1,1.37,1.27Z"/><path class="cls-6" d="M89.94,94.82l.71-.24a10.72,10.72,0,0,0-.74-1.94l-.66.37A9.3,9.3,0,0,1,89.94,94.82Z"/><path class="cls-6" d="M90.68,97.81l.66-.4s0-.11-.11-.28-.09-.41-.15-.65c-.1-.47-.21-1-.21-1l-.71.26.24,1c.06.25.12.5.16.69A2.33,2.33,0,0,0,90.68,97.81Z"/><path class="cls-6" d="M92.25,100.45l.53-.57a3.26,3.26,0,0,1-.6-.75,7,7,0,0,1-.49-.83l-.63.45a6,6,0,0,0,.54.89A3.65,3.65,0,0,0,92.25,100.45Z"/><path class="cls-6" d="M94.83,102.12l.36-.69a5.72,5.72,0,0,1-.89-.39,4.81,4.81,0,0,1-.81-.52l-.49.61a6.59,6.59,0,0,0,1.83,1Z"/><path class="cls-6" d="M97.87,102.69l.15-.75-1-.07-1-.17-.29.72,1,.18Z"/><path class="cls-6" d="M101,102.6l0-.75s-.49.05-1,.07-1,0-1,0l-.08.75s.53,0,1,0S101,102.6,101,102.6Z"/><polygon class="cls-6" points="103.97 102.27 103.89 101.52 101.89 101.75 101.97 102.5 103.97 102.27"/><path class="cls-6" d="M106.66,102.59l.36-.65a3.88,3.88,0,0,0-1-.41,3.75,3.75,0,0,0-.78-.11l-.33,0,0,.75h.3a2.41,2.41,0,0,1,.59.08A3.47,3.47,0,0,1,106.66,102.59Z"/><path class="cls-6" d="M108.35,104.66l.71-.27s-.06-.12-.14-.31a3.92,3.92,0,0,0-.35-.66,5,5,0,0,0-.68-.85l-.52.55a3.75,3.75,0,0,1,.57.71A4.44,4.44,0,0,1,108.35,104.66Z"/><path class="cls-6" d="M108.76,107.47h.75a1.34,1.34,0,0,0,0-.32c0-.19,0-.46,0-.72a5.94,5.94,0,0,0-.09-.71l0-.33-.74.16.05.29a5.24,5.24,0,0,1,.08.65c0,.25,0,.49,0,.67A1.3,1.3,0,0,1,108.76,107.47Z"/><path class="cls-5" d="M167.14,76.67l.34.36-1.55,1.43a1.15,1.15,0,0,0-.06,1.61L167,81.31a1.63,1.63,0,0,1-.1,2.31l-1,.94a1.2,1.2,0,0,0-.37.8,1.16,1.16,0,0,0,.31.83l1,1.09a1.61,1.61,0,0,1,.44,1.22,1.65,1.65,0,0,1-.59,1.16l-.71.58a1.14,1.14,0,0,0,0,1.73l1.48,1.32-.34.37-1.47-1.32a1.62,1.62,0,0,1,0-2.48l.7-.58a1.15,1.15,0,0,0,.42-.81,1.17,1.17,0,0,0-.31-.86l-1-1.09a1.61,1.61,0,0,1-.44-1.18,1.68,1.68,0,0,1,.53-1.15l1-.93a1.11,1.11,0,0,0,.37-.79,1.14,1.14,0,0,0-.29-.83L165.5,80.4a1.65,1.65,0,0,1,.1-2.31Z"/><path class="cls-6" d="M164.44,72.05a1.8,1.8,0,1,1,1.82,1.78A1.79,1.79,0,0,1,164.44,72.05Zm3.1,0a1.31,1.31,0,1,0-1.29,1.32A1.31,1.31,0,0,0,167.54,72Z"/><path class="cls-4" d="M175.52,50.69a20.85,20.85,0,1,1,20.85-20.85A20.87,20.87,0,0,1,175.52,50.69Zm0-40.24a19.39,19.39,0,1,0,19.39,19.39A19.41,19.41,0,0,0,175.52,10.45Z"/><path class="cls-7" d="M174.9,33.65c1.08,1.75-.35,4.58-3.19,6.33s-6,1.76-7.1,0,.36-4.58,3.2-6.33S173.83,31.91,174.9,33.65Z"/><path class="cls-8" d="M172.17,33.63c.5.81-.52,2.34-2.27,3.42s-3.59,1.31-4.08.5.51-2.34,2.27-3.43S171.67,32.82,172.17,33.63Z"/><g class="cls-9"><path d="M168.37,34.58c-1.58,1-2.56,2.32-2.37,3.17.67.55,2.31.28,3.9-.7s2.56-2.32,2.37-3.17C171.6,33.33,170,33.6,168.37,34.58Z"/></g><path class="cls-7" d="M183.53,44.17c-1.33,1.19-4,.4-5.91-1.76s-2.43-4.89-1.1-6.07,4-.41,5.92,1.76S184.86,43,183.53,44.17Z"/><path class="cls-8" d="M183.14,41.83c-.62.56-2.09-.08-3.29-1.42s-1.67-2.87-1-3.42,2.09.09,3.28,1.42S183.75,41.28,183.14,41.83Z"/><g class="cls-9"><path d="M181.73,38.73c-1.08-1.21-2.38-1.85-3.08-1.55-.37.66.12,2,1.2,3.23s2.38,1.84,3.08,1.55C183.3,41.3,182.81,39.93,181.73,38.73Z"/></g><path class="cls-7" d="M189.21,21.87c1,.9.72,3-.74,4.7S185,28.93,184,28s-.72-3,.74-4.7S188.17,21,189.21,21.87Z"/><path class="cls-8" d="M187.47,22.42c.48.41.15,1.6-.75,2.65s-2,1.57-2.51,1.16-.15-1.6.75-2.66S187,22,187.47,22.42Z"/><g class="cls-9"><path d="M185.24,23.81c-.81,1-1.16,2-.87,2.51.55.21,1.54-.3,2.35-1.25s1.16-2,.86-2.51C187,22.35,186.05,22.86,185.24,23.81Z"/></g><path class="cls-7" d="M181.57,28.53c-.1,1.67-2.39,2.89-5.11,2.72s-4.84-1.65-4.73-3.32,2.38-2.89,5.1-2.73S181.67,26.86,181.57,28.53Z"/><path class="cls-8" d="M179.76,27.23c0,.78-1.44,1.32-3.12,1.22s-3-.81-3-1.59,1.45-1.32,3.12-1.21S179.81,26.46,179.76,27.23Z"/><g class="cls-9"><path d="M176.78,26.09c-1.52-.09-2.8.34-3.07,1,.18.69,1.41,1.28,2.93,1.37s2.8-.34,3.07-1C179.52,26.77,178.3,26.18,176.78,26.09Z"/></g><path class="cls-7" d="M173.94,20.71c.67,1.68-1,3.92-3.74,5s-5.49.6-6.15-1.08,1-3.92,3.74-5S173.28,19,173.94,20.71Z"/><path class="cls-8" d="M171.58,20.27c.31.78-.81,1.95-2.5,2.62s-3.31.58-3.61-.2.81-2,2.5-2.62S171.27,19.49,171.58,20.27Z"/><g class="cls-9"><path d="M168.14,20.51c-1.52.61-2.58,1.62-2.54,2.39.49.58,2,.59,3.48,0s2.58-1.62,2.55-2.38C171.13,19.92,169.67,19.91,168.14,20.51Z"/></g><path class="cls-8" d="M180.32,16.86a1.05,1.05,0,1,1-1-1A1,1,0,0,1,180.32,16.86Z"/><path class="cls-10" d="M181.37,17.91a1.05,1.05,0,1,1-1.05-1.05A1,1,0,0,1,181.37,17.91Z"/><path class="cls-10" d="M180.32,19.39a1.05,1.05,0,1,1-1-1.05A1,1,0,0,1,180.32,19.39Z"/><path class="cls-7" d="M182,19.39a1,1,0,1,1-1-1.05A1,1,0,0,1,182,19.39Z"/><path class="cls-8" d="M177.23,17.58a1.17,1.17,0,1,1-1.17-1.17A1.17,1.17,0,0,1,177.23,17.58Z"/><path class="cls-8" d="M177,20.44a1.16,1.16,0,1,1-1.16-1.17A1.16,1.16,0,0,1,177,20.44Z"/><path class="cls-7" d="M177,19a1.16,1.16,0,1,1-1.16-1.17A1.16,1.16,0,0,1,177,19Z"/><path class="cls-7" d="M180.07,21.29a1.17,1.17,0,1,1-1.17-1.17A1.16,1.16,0,0,1,180.07,21.29Z"/><path class="cls-7" d="M178.94,16.86a1.35,1.35,0,1,1-1.35-1.35A1.35,1.35,0,0,1,178.94,16.86Z"/><path class="cls-8" d="M178.58,18.48a1.17,1.17,0,1,1-1.17-1.17A1.16,1.16,0,0,1,178.58,18.48Z"/><path class="cls-8" d="M180.07,18.22a1.17,1.17,0,1,1-1.17-1.16A1.17,1.17,0,0,1,180.07,18.22Z"/><path class="cls-8" d="M181.23,20.55a1.17,1.17,0,1,1-1.16-1.16A1.17,1.17,0,0,1,181.23,20.55Z"/><path class="cls-10" d="M178.9,20.12A1.16,1.16,0,1,1,177.74,19,1.17,1.17,0,0,1,178.9,20.12Z"/><path class="cls-8" d="M178.22,21.51a1.08,1.08,0,1,1-1.08-1.07A1.08,1.08,0,0,1,178.22,21.51Z"/><path class="cls-8" d="M165.92,28.84a1,1,0,1,1-1-1.05A1,1,0,0,1,165.92,28.84Z"/><path class="cls-10" d="M167,29.89a1,1,0,1,1-1.05-1.05A1,1,0,0,1,167,29.89Z"/><path class="cls-10" d="M165.92,31.37a1,1,0,1,1-1-1.05A1,1,0,0,1,165.92,31.37Z"/><path class="cls-7" d="M167.56,31.37a1.05,1.05,0,1,1-1.05-1.05A1,1,0,0,1,167.56,31.37Z"/><path class="cls-8" d="M162.83,29.56a1.17,1.17,0,1,1-1.16-1.16A1.16,1.16,0,0,1,162.83,29.56Z"/><path class="cls-8" d="M162.57,32.42a1.16,1.16,0,1,1-1.16-1.17A1.16,1.16,0,0,1,162.57,32.42Z"/><path class="cls-7" d="M162.57,30.94a1.16,1.16,0,1,1-1.16-1.17A1.17,1.17,0,0,1,162.57,30.94Z"/><path class="cls-7" d="M165.67,33.27a1.17,1.17,0,1,1-1.16-1.16A1.16,1.16,0,0,1,165.67,33.27Z"/><path class="cls-7" d="M164.54,28.84a1.35,1.35,0,1,1-1.35-1.35A1.34,1.34,0,0,1,164.54,28.84Z"/><circle class="cls-8" cx="163.01" cy="30.46" r="1.17"/><path class="cls-8" d="M165.67,30.21A1.17,1.17,0,1,1,164.51,29,1.16,1.16,0,0,1,165.67,30.21Z"/><path class="cls-8" d="M166.84,32.53a1.17,1.17,0,1,1-1.17-1.16A1.17,1.17,0,0,1,166.84,32.53Z"/><path class="cls-10" d="M164.51,32.11a1.17,1.17,0,1,1-1.17-1.17A1.17,1.17,0,0,1,164.51,32.11Z"/><path class="cls-8" d="M163.82,33.5a1.08,1.08,0,1,1-1.07-1.08A1.08,1.08,0,0,1,163.82,33.5Z"/><path class="cls-8" d="M188.67,31.2a1.14,1.14,0,1,1-1.13-1.13A1.12,1.12,0,0,1,188.67,31.2Z"/><path class="cls-10" d="M189.81,32.33a1.14,1.14,0,1,1-1.14-1.13A1.14,1.14,0,0,1,189.81,32.33Z"/><path class="cls-10" d="M188.67,33.94a1.14,1.14,0,1,1-1.13-1.14A1.13,1.13,0,0,1,188.67,33.94Z"/><path class="cls-7" d="M190.44,33.94a1.14,1.14,0,1,1-1.14-1.14A1.14,1.14,0,0,1,190.44,33.94Z"/><path class="cls-8" d="M185.33,32a1.27,1.27,0,1,1-1.27-1.26A1.26,1.26,0,0,1,185.33,32Z"/><path class="cls-8" d="M185.05,35.07a1.26,1.26,0,1,1-1.26-1.26A1.27,1.27,0,0,1,185.05,35.07Z"/><path class="cls-7" d="M185.05,33.47a1.26,1.26,0,1,1-1.26-1.26A1.26,1.26,0,0,1,185.05,33.47Z"/><path class="cls-7" d="M188.4,36a1.26,1.26,0,1,1-1.26-1.26A1.25,1.25,0,0,1,188.4,36Z"/><path class="cls-7" d="M187.18,31.2a1.46,1.46,0,1,1-1.46-1.46A1.46,1.46,0,0,1,187.18,31.2Z"/><path class="cls-8" d="M186.78,33a1.26,1.26,0,0,1-2.52,0,1.26,1.26,0,1,1,2.52,0Z"/><path class="cls-8" d="M188.4,32.68a1.26,1.26,0,1,1-1.26-1.27A1.26,1.26,0,0,1,188.4,32.68Z"/><path class="cls-8" d="M189.66,35.2a1.26,1.26,0,1,1-1.26-1.26A1.25,1.25,0,0,1,189.66,35.2Z"/><path class="cls-10" d="M187.14,34.73a1.26,1.26,0,1,1-1.26-1.26A1.25,1.25,0,0,1,187.14,34.73Z"/><path class="cls-8" d="M186.4,36.24a1.17,1.17,0,1,1-2.34,0,1.17,1.17,0,0,1,2.34,0Z"/><polygon class="cls-4" points="164.87 47.3 158.5 64.95 169.76 49.12 164.87 47.3"/><path class="cls-11" d="M187.89,62.31a3.3,3.3,0,0,0-3.36,1.4c-1.31,1.92-1.76,5.76-4.65,7.15s-4.68.15-6-.52-1.51-1.55-2.31-1.85-1.12.66.71,2.23c.88.75,4.75,5,8.5,4C185.72,73.38,191.17,63.85,187.89,62.31Z"/><path class="cls-2" d="M188.46,62.21s-2.12-1.45-4.38,1.64a20.22,20.22,0,0,0-2.8,4.75,9.84,9.84,0,0,0,5.3,3S191.73,63.83,188.46,62.21Z"/><path class="cls-11" d="M184.15,84.39c.58,6.47,3,16.5,3.46,22,0,.37.08.44-1.17.79-1.45.41-.31,1.14,2,1.07,2.13-.08,2.84-10.31,2.92-15.72,0-1.52-.63-6.1,0-10.45.13,1.62.3,3.46.53,5.48.69,5.9,7.31,13.49,7.92,18.45,0,.38,0,.53-1.12.94s0,1.1,2,1,.51-10.37-.62-15.17C199,88.54,183.48,76.92,184.15,84.39Z"/><path class="cls-4" d="M185.93,72.33c4,3,9,2,11.07,1.4.71,5.59,4.58,26.51,5,29.39a7.93,7.93,0,0,1-2.75.9c-8.59-12.69-7.77-18.23-7.9-19.85-.27,1.87,1,11-.59,20.06a3.22,3.22,0,0,1-3.71.09c-.08-.58-3.76-14.2-3.39-19.92A44.17,44.17,0,0,1,185.93,72.33Z"/><path class="cls-12" d="M189.59,106.94s-1.68.86-2.76.07c0,0-1.91.35-.69.89S189.7,108.85,189.59,106.94Z"/><path class="cls-12" d="M201.43,106.83s-1.69.86-2.76.07c0,0-1.91.36-.69.9S201.55,108.74,201.43,106.83Z"/><path class="cls-13" d="M197.26,76.94c1.67-1.38-2.43-5.41-1.37-9,1.54-5.08-2.35-5.65-4.71-6.06s-8.58.13-8.43,3.75c.12,3.07-.7,6,.93,11.74C185.39,83.42,197.27,76.94,197.26,76.94Z"/><path class="cls-11" d="M190,59s-.89,1.89.44,2.89-3.92,3.84-3.79,2.74c.17-1.42.89-2.26.2-3.9Z"/><path class="cls-11" d="M187,55.39c-1.21,1.14-2.51,6.15-1.23,7.25.55.49,2.83-.06,4.26-2.26a4.19,4.19,0,0,0,.41-4.31C190,55.3,188.38,54.06,187,55.39Z"/><path class="cls-12" d="M185.74,56c-.27.63-.19.77,1.7,1.06s2.22.16,2,.61c-.57,1.32.78,1.06.09,2.64s.89.62,1.6-.67a3.56,3.56,0,0,0,0-3.5C190.09,53.85,186.73,53.69,185.74,56Z"/><path class="cls-12" d="M176.82,91.88l2,0a3.71,3.71,0,0,0,3.75-3.65l.33-24.6-9.4-.13-.33,24.6A3.7,3.7,0,0,0,176.82,91.88Z"/><rect class="cls-2" x="173.35" y="68.6" width="9.43" height="9.4" transform="translate(102.39 250.37) rotate(-89.23)"/><g class="cls-9"><path d="M173.18,87v1.15a3.7,3.7,0,0,0,3.65,3.75l2,0a3.71,3.71,0,0,0,3.75-3.65l.1-7.41A13.24,13.24,0,0,1,173.18,87Z"/></g><rect class="cls-14" x="176.64" y="65.97" width="1.91" height="8.36" transform="translate(105.08 246.79) rotate(-89.24)"/><polygon class="cls-7" points="180.48 72.3 173.38 72.21 173.39 71.73 180.49 71.83 180.48 72.3"/><polygon class="cls-14" points="181.73 73.06 173.37 72.95 173.38 72.47 181.74 72.58 181.73 73.06"/><rect class="cls-14" x="177.05" y="71.04" width="0.96" height="8.36" transform="translate(99.95 251.73) rotate(-89.24)"/><rect class="cls-7" x="176.39" y="73.14" width="0.96" height="7.1" transform="translate(97.84 252.53) rotate(-89.24)"/><g class="cls-15"><rect x="177.34" y="60.96" width="1.66" height="9.4" transform="translate(110.13 242.94) rotate(-89.23)"/></g><path class="cls-4" d="M183.65,64a1.06,1.06,0,0,1-1.12,1l-8.7-.12a1.05,1.05,0,0,1-1.09-1l.13-10.09a1.06,1.06,0,0,1,1.13-1l8.69.11a1.06,1.06,0,0,1,1.09,1Z"/><g class="cls-9"><path d="M182.78,52.87a8,8,0,0,1,.23,2,7.82,7.82,0,0,1-8,7.66,8.1,8.1,0,0,1-2.27-.36l0,1.68a1.05,1.05,0,0,0,1.09,1l8.7.12a1.06,1.06,0,0,0,1.12-1l.13-10.08A1,1,0,0,0,182.78,52.87Z"/></g><g class="cls-16"><path class="cls-2" d="M176,82.45a.6.6,0,0,1-.63.53h0a.57.57,0,0,1-.6-.55L175,67.94a.57.57,0,0,1,.62-.53h0a.58.58,0,0,1,.61.55Z"/></g><path class="cls-11" d="M194.07,64.06A3.28,3.28,0,0,0,191,65.93c-1,2.09-.9,6-3.56,7.75s-4.6.83-6,.36-1.71-1.31-2.55-1.5-1,.82,1,2.11c1,.62,5.43,4.25,9,2.7C193.54,75.32,197.54,65.1,194.07,64.06Z"/><path class="cls-17" d="M194.62,63.88s-2.31-1.13-4.09,2.26a20,20,0,0,0-2.08,5.1,9.76,9.76,0,0,0,5.68,2.18S198.09,65,194.62,63.88Z"/><path class="cls-12" d="M184.34,78.71s2.28,3.3,13.1-2l.29,1.83S186.82,84.13,184.34,78.71Z"/><path class="cls-2" d="M198,83.17h-.47a2.43,2.43,0,0,1-1.84-.72,2.27,2.27,0,0,1-.53-1.6l0-.38Zm-2.45-1.85a1.77,1.77,0,0,0,.42.88,1.81,1.81,0,0,0,1.06.55Z"/><path class="cls-2" d="M183.85,84.23l2.81-2.71,0,.38a2.33,2.33,0,0,1-.53,1.6,2.41,2.41,0,0,1-1.84.72Zm2.44-1.85-1.47,1.43a1.81,1.81,0,0,0,1.06-.55A1.67,1.67,0,0,0,186.29,82.38Z"/><path class="cls-6" d="M137.22,207.57h2.86a5.29,5.29,0,0,0,5.3-5.29l0-35.2-13.45,0,0,35.21A5.3,5.3,0,0,0,137.22,207.57Z"/><rect class="cls-18" x="131.94" y="174.22" width="13.45" height="13.5"/><g class="cls-9"><path d="M131.93,200.62v1.65a5.3,5.3,0,0,0,5.29,5.3h2.86a5.29,5.29,0,0,0,5.3-5.29v-10.6A18.94,18.94,0,0,1,131.93,200.62Z"/></g><rect class="cls-13" x="131.95" y="175.1" width="11.97" height="2.73"/><rect class="cls-13" x="131.94" y="178.8" width="10.16" height="0.68"/><rect class="cls-13" x="131.94" y="179.86" width="11.97" height="0.68"/><rect class="cls-19" x="131.94" y="183.04" width="11.97" height="1.37"/><rect class="cls-13" x="131.94" y="185.15" width="10.16" height="1.37"/><g class="cls-15"><rect x="131.95" y="168.85" width="13.45" height="2.37"/></g><g class="cls-16"><path class="cls-2" d="M135.93,194.08a.84.84,0,0,1-.88.78h0a.84.84,0,0,1-.88-.78V173.35a.82.82,0,0,1,.88-.77h0a.82.82,0,0,1,.88.77Z"/></g><path class="cls-4" d="M131.33,163.37H146a.85.85,0,0,1,.85.85v4.09a.86.86,0,0,1-.86.86H131.33a.85.85,0,0,1-.85-.85v-4.09A.86.86,0,0,1,131.33,163.37Z"/><g class="cls-9"><path d="M146,163.37h-2.33c-.9,2.55-4.12,4.43-8,4.43a10.42,10.42,0,0,1-5.22-1.33v1.84a.86.86,0,0,0,.86.86H146a.86.86,0,0,0,.85-.86v-4.08A.85.85,0,0,0,146,163.37Z"/></g><path class="cls-6" d="M157.56,207.57h2.86a5.3,5.3,0,0,0,5.3-5.29l0-35.2-13.45,0,0,35.21A5.3,5.3,0,0,0,157.56,207.57Z"/><rect class="cls-18" x="152.28" y="174.22" width="13.45" height="13.5"/><g class="cls-9"><path d="M152.27,200.62v1.65a5.3,5.3,0,0,0,5.29,5.3h2.86a5.3,5.3,0,0,0,5.3-5.29v-10.6A18.94,18.94,0,0,1,152.27,200.62Z"/></g><rect class="cls-13" x="152.29" y="175.1" width="11.97" height="2.73"/><rect class="cls-13" x="152.29" y="178.8" width="10.16" height="0.68"/><rect class="cls-13" x="152.28" y="179.86" width="11.97" height="0.68"/><rect class="cls-19" x="152.28" y="183.04" width="11.97" height="1.37"/><rect class="cls-13" x="152.28" y="185.15" width="10.16" height="1.37"/><g class="cls-15"><rect x="152.29" y="168.85" width="13.45" height="2.37"/></g><g class="cls-16"><path class="cls-2" d="M156.27,194.08a.84.84,0,0,1-.88.78h0a.84.84,0,0,1-.88-.78V173.35a.82.82,0,0,1,.88-.77h0a.82.82,0,0,1,.88.77Z"/></g><rect class="cls-4" x="150.81" y="163.37" width="16.37" height="5.8" rx="0.86"/><g class="cls-9"><path d="M166.33,163.37H164c-.9,2.55-4.11,4.43-8,4.43a10.42,10.42,0,0,1-5.22-1.33v1.84a.86.86,0,0,0,.86.86h14.66a.86.86,0,0,0,.85-.86v-4.08A.85.85,0,0,0,166.33,163.37Z"/></g><path class="cls-6" d="M177.14,207.57H180a5.29,5.29,0,0,0,5.29-5.29l0-35.2-13.45,0,0,35.21A5.31,5.31,0,0,0,177.14,207.57Z"/><rect class="cls-18" x="171.87" y="174.22" width="13.45" height="13.5"/><g class="cls-9"><path d="M171.85,200.62v1.65a5.31,5.31,0,0,0,5.29,5.3H180a5.29,5.29,0,0,0,5.29-5.29v-10.6A18.94,18.94,0,0,1,171.85,200.62Z"/></g><rect class="cls-13" x="171.87" y="175.1" width="11.97" height="2.73"/><rect class="cls-13" x="171.87" y="178.8" width="10.16" height="0.68"/><rect class="cls-13" x="171.87" y="179.86" width="11.97" height="0.68"/><rect class="cls-19" x="171.87" y="183.04" width="11.97" height="1.37"/><rect class="cls-13" x="171.87" y="185.15" width="10.16" height="1.37"/><g class="cls-15"><rect x="171.88" y="168.85" width="13.45" height="2.37"/></g><g class="cls-16"><path class="cls-2" d="M175.85,194.08a.83.83,0,0,1-.88.78h0a.85.85,0,0,1-.88-.78l0-20.73a.82.82,0,0,1,.88-.77h0a.83.83,0,0,1,.88.77Z"/></g><path class="cls-4" d="M171.25,163.37h14.66a.85.85,0,0,1,.85.85v4.09a.86.86,0,0,1-.86.86H171.25a.86.86,0,0,1-.86-.86v-4.08A.86.86,0,0,1,171.25,163.37Z"/><g class="cls-9"><path d="M185.91,163.37h-2.33c-.9,2.55-4.12,4.43-8,4.43a10.42,10.42,0,0,1-5.22-1.33v1.84a.86.86,0,0,0,.85.86h14.66a.86.86,0,0,0,.86-.86v-4.08A.85.85,0,0,0,185.91,163.37Z"/></g><path class="cls-20" d="M194,183.44a.94.94,0,0,1-1,.9H125a.94.94,0,0,1-1-.9v-.81a.94.94,0,0,1,1-.91h68a1,1,0,0,1,1,.91Z"/><path class="cls-20" d="M126.46,178.65h1.81a.9.9,0,0,1,.9.9V215a.91.91,0,0,1-.91.91h-1.81a.9.9,0,0,1-.9-.9V179.55A.9.9,0,0,1,126.46,178.65Z"/><path class="cls-20" d="M188.89,178.65h1.81a.9.9,0,0,1,.9.9V215a.91.91,0,0,1-.91.91h-1.81a.9.9,0,0,1-.9-.9V179.55A.9.9,0,0,1,188.89,178.65Z"/><path class="cls-5" d="M183.45,211.22l0,.45-.6-.08c-.3,0-.61-.11-.61-.11l.12-.45a5.56,5.56,0,0,0,.56.11Z"/><path class="cls-5" d="M185.18,211.25l0,.46a5.27,5.27,0,0,1-.61,0H184l0-.46h.58A4.84,4.84,0,0,0,185.18,211.25Z"/><path class="cls-5" d="M186.88,211l.12.45-.59.13c-.3.06-.61.1-.61.1l-.05-.46s.29,0,.57-.08Z"/><path class="cls-5" d="M188.46,210.33l.24.39-.55.28a1.59,1.59,0,0,1-.39.17l-.18.07-.16-.43a4.62,4.62,0,0,0,.53-.22Z"/><path class="cls-5" d="M189.76,209.24l.35.31-.44.44a3.43,3.43,0,0,1-.48.39l-.28-.37a2.45,2.45,0,0,0,.45-.36Z"/><path class="cls-5" d="M190.67,207.81l.41.2-.26.55c-.17.26-.35.51-.35.51l-.37-.27s.16-.24.33-.47Z"/><polygon class="cls-5" points="191.25 206.1 191.65 206.36 191.33 207.46 190.9 207.29 191.25 206.1"/><path class="cls-5" d="M191.82,204.37l.35.36-.21.53a4.45,4.45,0,0,0-.16.56l-.39-.3a5.29,5.29,0,0,1,.18-.59C191.7,204.65,191.82,204.37,191.82,204.37Z"/><path class="cls-5" d="M192.74,202.8l.27.45a4.51,4.51,0,0,0-.33.47l-.28.5-.33-.39.31-.54A5.6,5.6,0,0,1,192.74,202.8Z"/><path class="cls-5" d="M194.05,201.55l.18.51-.46.35c-.21.19-.41.4-.41.4l-.24-.47s.21-.22.44-.43Z"/><path class="cls-5" d="M195.73,200.87l.07.55a3.8,3.8,0,0,0-1.09.37l-.14-.53A4.66,4.66,0,0,1,195.73,200.87Z"/><path class="cls-5" d="M197.54,200.91l0,.54-.56-.09h-.58l0-.55h.61Z"/><path class="cls-5" d="M199.2,201.62l-.15.52a4.46,4.46,0,0,0-1-.52l.08-.54A5.53,5.53,0,0,1,199.2,201.62Z"/><path class="cls-5" d="M200.55,202.84l-.25.45-.11-.14a3.45,3.45,0,0,0-.27-.29l-.42-.39.19-.5.45.41a2.68,2.68,0,0,1,.29.31Z"/><path class="cls-5" d="M201.55,204.35l-.33.37-.27-.5c-.15-.25-.31-.49-.31-.49l.28-.43.34.51Z"/><path class="cls-5" d="M202.3,206l-.4.26-.2-.54c-.11-.26-.23-.52-.23-.52l.35-.34s.13.28.25.57S202.3,206,202.3,206Z"/><path class="cls-5" d="M202.94,207.74l-.43.17-.21-.55-.2-.54.41-.22s.1.29.21.57S202.94,207.74,202.94,207.74Z"/><path class="cls-5" d="M203.7,209.28l-.38.26s-.17-.26-.32-.54l-.26-.55.42-.18s.12.26.25.52S203.7,209.28,203.7,209.28Z"/><path class="cls-5" d="M204.87,210.46l-.25.39a4.11,4.11,0,0,1-.94-.82l.35-.3A3.65,3.65,0,0,0,204.87,210.46Z"/><path class="cls-5" d="M206.44,211l-.07.45-.61-.11c-.3-.09-.59-.21-.59-.21l.18-.42.53.19Z"/><path class="cls-5" d="M208.15,211l0,.45-.6.06-.62,0,0-.46.58,0Z"/><path class="cls-6" d="M196.92,207.36a1.1,1.1,0,1,1,0-2.19,1.1,1.1,0,0,1,0,2.19Zm0-.3a.79.79,0,0,0,.8-.78.79.79,0,0,0-.78-.81.8.8,0,1,0,0,1.59Z"/><path class="cls-5" d="M136.27,152.1a1.31,1.31,0,1,1,1.32,1.29A1.31,1.31,0,0,1,136.27,152.1Zm2.26,0a1,1,0,0,0-1-.94,1,1,0,1,0,1,.94Z"/><path class="cls-6" d="M136.17,148l-.07-.54a9.79,9.79,0,0,0-1.48.32l.17.52A10.58,10.58,0,0,1,136.17,148Z"/><path class="cls-6" d="M138.28,147.93l.05-.55a10.87,10.87,0,0,0-1.51,0l.05.54A9.48,9.48,0,0,1,138.28,147.93Z"/><path class="cls-6" d="M140.29,148.43l.23-.49a6.35,6.35,0,0,0-1.46-.46L139,148A6.12,6.12,0,0,1,140.29,148.43Z"/><path class="cls-6" d="M141.87,149.69l.44-.33a4.16,4.16,0,0,0-.53-.57,2.92,2.92,0,0,0-.6-.48l-.31.45a3,3,0,0,1,.54.43A3.14,3.14,0,0,1,141.87,149.69Z"/><path class="cls-6" d="M142.74,151.57l.52-.18a7.76,7.76,0,0,0-.54-1.4l-.48.26A6.54,6.54,0,0,1,142.74,151.57Z"/><path class="cls-6" d="M143.28,153.74l.48-.29a1.68,1.68,0,0,1-.08-.2l-.11-.48c-.07-.34-.15-.69-.15-.69l-.52.2.18.73c0,.19.08.37.12.51A2.17,2.17,0,0,0,143.28,153.74Z"/><path class="cls-6" d="M144.42,155.66l.39-.41a2.36,2.36,0,0,1-.44-.55,5.8,5.8,0,0,1-.36-.61l-.45.34a4,4,0,0,0,.39.64A2.88,2.88,0,0,0,144.42,155.66Z"/><path class="cls-6" d="M146.29,156.87l.27-.5a3.37,3.37,0,0,1-.65-.28,4.25,4.25,0,0,1-.59-.38l-.35.45a4.8,4.8,0,0,0,.63.4A3.77,3.77,0,0,0,146.29,156.87Z"/><path class="cls-6" d="M148.5,157.29l.11-.55-.7-.05-.69-.12-.22.52.75.13Z"/><path class="cls-6" d="M150.76,157.22l0-.54-.71,0c-.35,0-.71,0-.71,0l-.05.55.76,0C150.39,157.26,150.76,157.22,150.76,157.22Z"/><polygon class="cls-6" points="152.94 156.98 152.88 156.44 151.42 156.6 151.48 157.15 152.94 156.98"/><path class="cls-6" d="M154.89,157.22l.26-.48a2.92,2.92,0,0,0-.74-.3,2.39,2.39,0,0,0-.57-.07h-.23l0,.54h.22a2.9,2.9,0,0,1,.43.06A2.65,2.65,0,0,1,154.89,157.22Z"/><path class="cls-6" d="M156.12,158.71l.51-.19-.1-.22a2.47,2.47,0,0,0-.25-.48,3.65,3.65,0,0,0-.5-.62l-.38.4a2.36,2.36,0,0,1,.42.51A4.11,4.11,0,0,1,156.12,158.71Z"/><path class="cls-6" d="M156.41,160.76H157a1.4,1.4,0,0,0,0-.23c0-.14,0-.34,0-.52a3.45,3.45,0,0,0-.07-.52c0-.14,0-.24,0-.24l-.53.11,0,.21a3,3,0,0,1,.06.48c0,.18,0,.35,0,.48A1.4,1.4,0,0,1,156.41,160.76Z"/><path class="cls-11" d="M144.3,187.52a1.78,1.78,0,0,1,2,.63c.78,1.18,1,4,2.79,4.9a3.51,3.51,0,0,0,3.64-.27c.79-.4.92-.93,1.42-1.11s.67.41-.45,1.36c-.54.45-2.92,3-5.19,2.35C145.56,194.54,142.29,188.43,144.3,187.52Z"/><path class="cls-11" d="M146.89,206c-.49,3-.89,9.31.43,9.26s2-.54,1.24-.72-.8-.27-.8-.51c.07-1.49,1.22-4.33,1.66-6.51C149.92,205,147.32,203.38,146.89,206Z"/><path class="cls-12" d="M146.72,214.65s1.17.43,1.84-.12c0,0,1.3.11.51.51S146.75,215.82,146.72,214.65Z"/><path class="cls-20" d="M142.08,193.72s6.75,4.74,7.73,7.17c.87,2.18-1.15,11-1.15,11a3.34,3.34,0,0,1-2.74-.24l.18-6.83-5.7-5.22h0Z"/><path class="cls-11" d="M137.72,206.36c-2.49,2.06-7.26,6.88-6.17,7.76s2,1,1.51.3-.46-.79-.29-1c1.11-1.16,4-2.64,5.91-4.08C140.87,207.69,139.9,204.56,137.72,206.36Z"/><path class="cls-12" d="M131.49,213.22s.65,1.17,1.57,1.2c0,0,1,1,.05.76S130.69,214.18,131.49,213.22Z"/><path class="cls-20" d="M141.08,193.69s3.51,8,2.58,10.62c-.83,2.37-8.64,8-8.64,8a3.52,3.52,0,0,1-2-2.11l5-5.39s-1.78-5.51-1.15-8h0Z"/><path class="cls-13" d="M145.29,197.22a11.94,11.94,0,0,0,2.08-6.41c.07-2.85-2.44-3.59-4.05-3.74s-4.21-.46-4.11,3.09c.08,2.48-.82,3.77-2.08,5.87h0l-.1.15a0,0,0,0,1,0,0s0,0,0,0C135.26,198.36,143.83,199.16,145.29,197.22Z"/><path class="cls-11" d="M143.55,185s.36,1.36-.64,1.85,2.11,3,2.16,2.27c.07-1-.31-1.6.35-2.59Z"/><path class="cls-11" d="M146,183c.66.9.9,4.36-.07,4.93-.43.25-1.86-.39-2.54-2a2.81,2.81,0,0,1,.26-2.88A1.49,1.49,0,0,1,146,183Z"/><path class="cls-12" d="M146.7,183.55c.1.45,0,.53-1.24.49s-1.49-.17-1.41.16c.2.94-.65.6-.39,1.72s-.66.3-1-.63a2.42,2.42,0,0,1,.42-2.31A2,2,0,0,1,146.7,183.55Z"/><path class="cls-12" d="M136.79,196.73s0,1.77,6.29,1.59a12.63,12.63,0,0,1-6.38.63A5,5,0,0,1,136.79,196.73Z"/><path class="cls-11" d="M140.44,187.24a1.71,1.71,0,0,1,1.13,1.66c.12,1.43-.69,4,.43,5.6a3.56,3.56,0,0,0,3.35,1.55c.91,0,1.28-.37,1.8-.29s.4.69-1.05,1c-.7.13-4.06,1.22-5.76-.46C138.12,194.08,138.22,187.06,140.44,187.24Z"/><path class="cls-4" d="M16.73,162.31a15.67,15.67,0,0,1,9-14,2.26,2.26,0,0,0,1.27-2v-2.61a2.29,2.29,0,0,1,2.29-2.3h7.69a2.29,2.29,0,0,1,2.29,2.3v2.61a2.26,2.26,0,0,0,1.27,2,15.68,15.68,0,0,1,9,14c0,.17,0,.35,0,.52h0v19.66a4.81,4.81,0,0,1-4.82,4.81H21.55a4.81,4.81,0,0,1-4.82-4.81V162.83h0c0-.17,0-.35,0-.52Z"/><rect class="cls-14" x="16.73" y="162.31" width="32.72" height="16.61"/><g class="cls-15"><path class="cls-5" d="M39.23,143.63v2.61a2.26,2.26,0,0,0,1.27,2,15.68,15.68,0,0,1,9,14c0,.17,0,.35,0,.52h0v19.66a4.81,4.81,0,0,1-4.82,4.81H21.55a4.81,4.81,0,0,1-3.11-1.16c19.27.94,17.64-2.93,17.64-2.93s.16-28.79,0-34-8-5.66-8-5.66l1.9-2.24h7A2.29,2.29,0,0,1,39.23,143.63Z"/></g><rect class="cls-6" x="25.86" y="139.16" width="14.79" height="5.35" rx="1.26"/><g class="cls-16"><path class="cls-2" d="M22.28,180.93a.94.94,0,0,0,1,.88h0a.94.94,0,0,0,1-.88v-23.4a.94.94,0,0,0-1-.88h0a.94.94,0,0,0-1,.88Z"/></g><rect class="cls-21" x="74.34" y="157.71" width="12.78" height="43.28" transform="translate(-99.36 258.41) rotate(-89.47)"/><rect class="cls-5" x="92.65" y="175.94" width="8.9" height="6.93" transform="translate(-83.19 274.85) rotate(-89.47)"/><rect class="cls-6" x="83.78" y="175.86" width="8.9" height="6.93" transform="translate(-91.91 265.88) rotate(-89.47)"/><rect class="cls-13" x="74.91" y="175.78" width="8.9" height="6.93" transform="translate(-100.6 256.95) rotate(-89.47)"/><path class="cls-6" d="M65.09,157c-1.48-.94-1.65-2.75,0-7,1.52-3.85.58-15.1-2-15.43-2.62.31-3.64,11.56-2.15,15.42,1.64,4.26,1.46,6.06,0,7a6.91,6.91,0,0,0-3.15,4.9l-.09,23.53c0,.87,2.33,1.58,5.22,1.59s5.24-.68,5.24-1.55l.09-23.53A6.91,6.91,0,0,0,65.09,157Z"/><rect class="cls-13" x="52.72" y="170.06" width="20.4" height="7.61" transform="translate(-111.17 236.16) rotate(-89.79)"/><path class="cls-18" d="M66.79,176.3c0,.26-1.74.47-3.88.46s-3.88-.22-3.88-.49,1.74-.47,3.88-.46S66.79,176,66.79,176.3Z"/><path class="cls-18" d="M62.93,171.44c-2.14,0-3.88-.22-3.88-.49l0,5.32,7.76,0,0-5.32C66.81,171.24,65.07,171.45,62.93,171.44Z"/><g class="cls-15"><path class="cls-2" d="M61.49,180.56a.73.73,0,0,1-.77.68h0a.72.72,0,0,1-.76-.68l.06-18a.73.73,0,0,1,.77-.68h0a.71.71,0,0,1,.76.68Z"/></g><path class="cls-4" d="M83.25,167.27v-.39a2,2,0,0,0-2-1.93H75.28a2,2,0,0,0-2,1.93v.39a2,2,0,0,1-.85,1.57,1.34,1.34,0,0,0-.54,1.07V183a3.42,3.42,0,0,0,3.5,3.33h5.77a3.41,3.41,0,0,0,3.5-3.33V169.91a1.34,1.34,0,0,0-.53-1.07,2,2,0,0,1-.85-1.57Z"/><rect class="cls-2" x="71.86" y="172.31" width="12.77" height="8.29"/><path class="cls-22" d="M84,165.94a.48.48,0,0,1-.49.46H73a.48.48,0,0,1-.49-.46V163.2a.48.48,0,0,1,.49-.47H83.49a.48.48,0,0,1,.49.47Z"/><path class="cls-4" d="M84.59,163.46a.46.46,0,0,1-.48.46H72.39a.46.46,0,0,1-.48-.46V162a.46.46,0,0,1,.48-.46H84.11a.46.46,0,0,1,.48.46Z"/><g class="cls-9"><path d="M73.74,182.07a10.6,10.6,0,0,1-1.88-.18V183a3.42,3.42,0,0,0,3.5,3.33h5.77a3.41,3.41,0,0,0,3.5-3.33V169.89C84.58,176.63,79.73,182.07,73.74,182.07Z"/></g><path class="cls-23" d="M73,166.4H83.49a.48.48,0,0,0,.49-.46v-.43H72.52v.43A.48.48,0,0,0,73,166.4Z"/><rect class="cls-6" x="72.53" y="173.18" width="10.09" height="1.4"/><rect class="cls-6" x="72.53" y="175.08" width="8.56" height="0.35"/><rect class="cls-6" x="72.53" y="175.63" width="10.09" height="0.35"/><rect class="cls-6" x="72.52" y="177.26" width="10.09" height="0.7"/><rect class="cls-6" x="72.52" y="178.34" width="8.56" height="0.7"/><g class="cls-16"><path class="cls-2" d="M74.54,180.84a.44.44,0,0,1-.47.4h0a.45.45,0,0,1-.48-.4V170.19a.45.45,0,0,1,.48-.39h0a.44.44,0,0,1,.47.4Z"/></g><g class="cls-9"><rect class="cls-6" x="73.25" y="166.4" width="10" height="0.87"/></g><g class="cls-9"><path class="cls-6" d="M72.39,163.92H84.11a.46.46,0,0,0,.48-.46v-1.08H71.91v1.08A.46.46,0,0,0,72.39,163.92Z"/></g><path class="cls-14" d="M58.35,182.58a3.79,3.79,0,0,1,3.8-3.77l24.77.1a3.77,3.77,0,0,1,3.59,2.72H92a1.08,1.08,0,0,1,0,2.16H90.51a3.78,3.78,0,0,1-3.63,2.69l-24.76-.1A3.79,3.79,0,0,1,58.35,182.58Z"/><g class="cls-9"><path d="M58.35,182.58a3.76,3.76,0,0,1,1.11-2.66,3.77,3.77,0,0,0,3.7,3l24.76.1a3.74,3.74,0,0,0,3-1.42H92a1.08,1.08,0,0,1,0,2.16H90.51a3.78,3.78,0,0,1-3.63,2.69l-24.76-.1A3.79,3.79,0,0,1,58.35,182.58Z"/></g><path class="cls-4" d="M52.29,182.52A4.64,4.64,0,0,1,57,177.9l12,0,0,9.28-12,0A4.65,4.65,0,0,1,52.29,182.52Z"/><g class="cls-9"><path class="cls-5" d="M56.91,187.19l12,0,0-4c-9.38.33-14.16-.89-16.5-1.94a4.59,4.59,0,0,0,4.43,5.9Z"/></g><path class="cls-4" d="M69.78,176.49a1.11,1.11,0,0,0-1.11,1.1l0,10.06a1.11,1.11,0,0,0,1.1,1.11h0a1.11,1.11,0,0,0,1.11-1.1l0-10.06a1.11,1.11,0,0,0-1.1-1.11Z"/></g></g></g></svg>